<?xml version="1.0" encoding="UTF-8" standalone="no"?>
<!DOCTYPE svg PUBLIC "-//W3C//DTD SVG 1.1//EN"
 "http://www.w3.org/Graphics/SVG/1.1/DTD/svg11.dtd">
<!-- Generated by graphviz version 2.43.0 (0)
 -->
<!-- Title: Architecture Pages: 1 -->
<svg width="630pt" height="380pt"
 viewBox="0.00 0.00 630.00 380.00" xmlns="http://www.w3.org/2000/svg" xmlns:xlink="http://www.w3.org/1999/xlink">
<g id="graph0" class="graph" transform="scale(1 1) rotate(0) translate(4 376)">
<title>Architecture</title>
<polygon fill="white" stroke="transparent" points="-4,4 -4,-376 626,-376 626,4 -4,4"/>
<!-- App -->
<g id="node1" class="node">
<title>App</title>
<polygon fill="none" stroke="black" points="140,-204 0,-204 0,-166 140,-166 140,-204"/>
<text text-anchor="middle" x="70" y="-188.8" font-family="Helvetica,sans-Serif" font-size="14.00">app.py</text>
<text text-anchor="middle" x="70" y="-173.8" font-family="Helvetica,sans-Serif" font-size="14.00">Flask App Factory</text>
</g>
<!-- Auth -->
<g id="node2" class="node">
<title>Auth</title>
<polygon fill="none" stroke="black" points="315,-92 187,-92 187,-54 315,-54 315,-92"/>
<text text-anchor="middle" x="251" y="-76.8" font-family="Helvetica,sans-Serif" font-size="14.00">auth blueprint</text>
<text text-anchor="middle" x="251" y="-61.8" font-family="Helvetica,sans-Serif" font-size="14.00">(routes/auth.py)</text>
</g>
<!-- App&#45;&gt;Auth -->
<g id="edge1" class="edge">
<title>App&#45;&gt;Auth</title>
<path fill="none" stroke="black" d="M90.91,-165.88C111.06,-147.34 143.76,-119.39 176,-101 178.8,-99.4 181.72,-97.86 184.7,-96.38"/>
<polygon fill="black" stroke="black" points="186.21,-99.53 193.78,-92.12 183.24,-93.2 186.21,-99.53"/>
</g>
<!-- Main -->
<g id="node3" class="node">
<title>Main</title>
<polygon fill="none" stroke="black" points="316.5,-316 185.5,-316 185.5,-278 316.5,-278 316.5,-316"/>
<text text-anchor="middle" x="251" y="-300.8" font-family="Helvetica,sans-Serif" font-size="14.00">main blueprint</text>
<text text-anchor="middle" x="251" y="-285.8" font-family="Helvetica,sans-Serif" font-size="14.00">(routes/main.py)</text>
</g>
<!-- App&#45;&gt;Main -->
<g id="edge2" class="edge">
<title>App&#45;&gt;Main</title>
<path fill="none" stroke="black" d="M90.91,-204.12C111.06,-222.66 143.76,-250.61 176,-269 178.8,-270.6 181.72,-272.14 184.7,-273.62"/>
<polygon fill="black" stroke="black" points="183.24,-276.8 193.78,-277.88 186.21,-270.47 183.24,-276.8"/>
</g>
<!-- Student -->
<g id="node4" class="node">
<title>Student</title>
<polygon fill="none" stroke="black" points="326,-260 176,-260 176,-222 326,-222 326,-260"/>
<text text-anchor="middle" x="251" y="-244.8" font-family="Helvetica,sans-Serif" font-size="14.00">student blueprint</text>
<text text-anchor="middle" x="251" y="-229.8" font-family="Helvetica,sans-Serif" font-size="14.00">(routes/student.py)</text>
</g>
<!-- App&#45;&gt;Student -->
<g id="edge3" class="edge">
<title>App&#45;&gt;Student</title>
<path fill="none" stroke="black" d="M131.85,-204.04C147.13,-208.82 163.65,-213.98 179.36,-218.9"/>
<polygon fill="black" stroke="black" points="178.42,-222.27 189.01,-221.92 180.51,-215.59 178.42,-222.27"/>
</g>
<!-- Parent -->
<g id="node5" class="node">
<title>Parent</title>
<polygon fill="none" stroke="black" points="322,-372 180,-372 180,-334 322,-334 322,-372"/>
<text text-anchor="middle" x="251" y="-356.8" font-family="Helvetica,sans-Serif" font-size="14.00">parent blueprint</text>
<text text-anchor="middle" x="251" y="-341.8" font-family="Helvetica,sans-Serif" font-size="14.00">(routes/parent.py)</text>
</g>
<!-- App&#45;&gt;Parent -->
<g id="edge4" class="edge">
<title>App&#45;&gt;Parent</title>
<path fill="none" stroke="black" d="M80.64,-204.02C96.62,-233.78 131.31,-291.41 176,-325 177.78,-326.34 179.64,-327.62 181.55,-328.85"/>
<polygon fill="black" stroke="black" points="179.83,-331.9 190.24,-333.89 183.34,-325.84 179.83,-331.9"/>
</g>
<!-- Teacher -->
<g id="node6" class="node">
<title>Teacher</title>
<polygon fill="none" stroke="black" points="325,-204 177,-204 177,-166 325,-166 325,-204"/>
<text text-anchor="middle" x="251" y="-188.8" font-family="Helvetica,sans-Serif" font-size="14.00">teacher blueprint</text>
<text text-anchor="middle" x="251" y="-173.8" font-family="Helvetica,sans-Serif" font-size="14.00">(routes/teacher.py)</text>
</g>
<!-- App&#45;&gt;Teacher -->
<g id="edge5" class="edge">
<title>App&#45;&gt;Teacher</title>
<path fill="none" stroke="black" d="M140.21,-185C148.93,-185 157.92,-185 166.83,-185"/>
<polygon fill="black" stroke="black" points="166.83,-188.5 176.83,-185 166.83,-181.5 166.83,-188.5"/>
</g>
<!-- Admin -->
<g id="node7" class="node">
<title>Admin</title>
<polygon fill="none" stroke="black" points="321,-148 181,-148 181,-110 321,-110 321,-148"/>
<text text-anchor="middle" x="251" y="-132.8" font-family="Helvetica,sans-Serif" font-size="14.00">admin blueprint</text>
<text text-anchor="middle" x="251" y="-117.8" font-family="Helvetica,sans-Serif" font-size="14.00">(routes/admin.py)</text>
</g>
<!-- App&#45;&gt;Admin -->
<g id="edge6" class="edge">
<title>App&#45;&gt;Admin</title>
<path fill="none" stroke="black" d="M131.85,-165.96C147.13,-161.18 163.65,-156.02 179.36,-151.1"/>
<polygon fill="black" stroke="black" points="180.51,-154.41 189.01,-148.08 178.42,-147.73 180.51,-154.41"/>
</g>
<!-- Utils -->
<g id="node12" class="node">
<title>Utils</title>
<polygon fill="none" stroke="black" points="278,-36 224,-36 224,0 278,0 278,-36"/>
<text text-anchor="middle" x="251" y="-14.3" font-family="Helvetica,sans-Serif" font-size="14.00">utils/</text>
</g>
<!-- App&#45;&gt;Utils -->
<g id="edge25" class="edge">
<title>App&#45;&gt;Utils</title>
<path fill="none" stroke="black" d="M80.59,-165.91C96.51,-136.07 131.11,-78.32 176,-45 187.18,-36.7 201.17,-30.74 213.96,-26.56"/>
<polygon fill="black" stroke="black" points="215.32,-29.8 223.89,-23.58 213.31,-23.1 215.32,-29.8"/>
</g>
<!-- Models -->
<g id="node8" class="node">
<title>Models</title>
<polygon fill="none" stroke="black" points="451.5,-204 362.5,-204 362.5,-168 451.5,-168 451.5,-204"/>
<text text-anchor="middle" x="407" y="-182.3" font-family="Helvetica,sans-Serif" font-size="14.00">models.py</text>
</g>
<!-- Auth&#45;&gt;Models -->
<g id="edge7" class="edge">
<title>Auth&#45;&gt;Models</title>
<path fill="none" stroke="black" d="M312.77,-92.19C317.46,-94.79 321.94,-97.72 326,-101 349,-119.62 341.2,-135.96 362,-157 363.57,-158.59 365.24,-160.13 366.97,-161.63"/>
<polygon fill="black" stroke="black" points="364.89,-164.45 374.9,-167.9 369.22,-158.95 364.89,-164.45"/>
</g>
<!-- Forms -->
<g id="node9" class="node">
<title>Forms</title>
<polygon fill="none" stroke="black" points="446,-148 368,-148 368,-112 446,-112 446,-148"/>
<text text-anchor="middle" x="407" y="-126.3" font-family="Helvetica,sans-Serif" font-size="14.00">forms.py</text>
</g>
<!-- Auth&#45;&gt;Forms -->
<g id="edge14" class="edge">
<title>Auth&#45;&gt;Forms</title>
<path fill="none" stroke="black" d="M303.71,-92.14C321.24,-98.63 340.74,-105.84 357.97,-112.22"/>
<polygon fill="black" stroke="black" points="357.23,-115.68 367.82,-115.87 359.66,-109.12 357.23,-115.68"/>
</g>
<!-- Templates -->
<g id="node10" class="node">
<title>Templates</title>
<polygon fill="none" stroke="black" points="452,-258 362,-258 362,-222 452,-222 452,-258"/>
<text text-anchor="middle" x="407" y="-236.3" font-family="Helvetica,sans-Serif" font-size="14.00">templates/</text>
</g>
<!-- Auth&#45;&gt;Templates -->
<g id="edge18" class="edge">
<title>Auth&#45;&gt;Templates</title>
<path fill="none" stroke="black" d="M315.17,-92.01C319.11,-94.64 322.78,-97.61 326,-101 362.02,-138.9 329.71,-171.88 362,-213 362.48,-213.61 362.97,-214.21 363.48,-214.79"/>
<polygon fill="black" stroke="black" points="361.24,-217.49 370.89,-221.85 366.06,-212.42 361.24,-217.49"/>
</g>
<!-- Main&#45;&gt;Models -->
<g id="edge8" class="edge">
<title>Main&#45;&gt;Models</title>
<path fill="none" stroke="black" d="M312.77,-277.81C317.46,-275.21 321.94,-272.28 326,-269 349,-250.38 340.86,-233.7 362,-213 362.8,-212.22 363.63,-211.44 364.48,-210.69"/>
<polygon fill="black" stroke="black" points="366.95,-213.19 372.6,-204.22 362.6,-207.71 366.95,-213.19"/>
</g>
<!-- Main&#45;&gt;Templates -->
<g id="edge19" class="edge">
<title>Main&#45;&gt;Templates</title>
<path fill="none" stroke="black" d="M303.71,-277.86C319.34,-272.08 336.53,-265.71 352.29,-259.88"/>
<polygon fill="black" stroke="black" points="353.73,-263.08 361.89,-256.33 351.3,-256.52 353.73,-263.08"/>
</g>
<!-- Student&#45;&gt;Models -->
<g id="edge9" class="edge">
<title>Student&#45;&gt;Models</title>
<path fill="none" stroke="black" d="M305.43,-221.92C320.68,-216.47 337.3,-210.54 352.55,-205.09"/>
<polygon fill="black" stroke="black" points="354.1,-208.25 362.34,-201.59 351.75,-201.66 354.1,-208.25"/>
</g>
<!-- Student&#45;&gt;Forms -->
<g id="edge15" class="edge">
<title>Student&#45;&gt;Forms</title>
<path fill="none" stroke="black" d="M312.34,-221.94C317.18,-219.31 321.81,-216.34 326,-213 348.57,-195.04 341.55,-179.34 362,-159 363.58,-157.43 365.26,-155.89 367,-154.4"/>
<polygon fill="black" stroke="black" points="369.25,-157.08 374.96,-148.16 364.93,-151.58 369.25,-157.08"/>
</g>
<!-- Student&#45;&gt;Templates -->
<g id="edge20" class="edge">
<title>Student&#45;&gt;Templates</title>
<path fill="none" stroke="black" d="M326.29,-240.52C334.84,-240.46 343.43,-240.41 351.64,-240.35"/>
<polygon fill="black" stroke="black" points="351.83,-243.85 361.81,-240.29 351.79,-236.85 351.83,-243.85"/>
</g>
<!-- Parent&#45;&gt;Models -->
<g id="edge10" class="edge">
<title>Parent&#45;&gt;Models</title>
<path fill="none" stroke="black" d="M315.17,-333.99C319.11,-331.36 322.78,-328.39 326,-325 362.02,-287.1 329.71,-254.12 362,-213 362.48,-212.39 362.97,-211.79 363.48,-211.21"/>
<polygon fill="black" stroke="black" points="366.06,-213.58 370.89,-204.15 361.24,-208.51 366.06,-213.58"/>
</g>
<!-- Parent&#45;&gt;Templates -->
<g id="edge21" class="edge">
<title>Parent&#45;&gt;Templates</title>
<path fill="none" stroke="black" d="M310.24,-333.92C315.74,-331.25 321.09,-328.28 326,-325 349.82,-309.09 371.73,-284.84 386.57,-266.3"/>
<polygon fill="black" stroke="black" points="389.47,-268.27 392.87,-258.24 383.96,-263.96 389.47,-268.27"/>
</g>
<!-- Teacher&#45;&gt;Models -->
<g id="edge11" class="edge">
<title>Teacher&#45;&gt;Models</title>
<path fill="none" stroke="black" d="M325.39,-185.48C334.31,-185.53 343.3,-185.59 351.87,-185.65"/>
<polygon fill="black" stroke="black" points="352.07,-189.15 362.09,-185.71 352.11,-182.15 352.07,-189.15"/>
</g>
<!-- Teacher&#45;&gt;Forms -->
<g id="edge16" class="edge">
<title>Teacher&#45;&gt;Forms</title>
<path fill="none" stroke="black" d="M305.43,-165.92C322.57,-159.8 341.43,-153.06 358.14,-147.09"/>
<polygon fill="black" stroke="black" points="359.47,-150.34 367.71,-143.68 357.11,-143.74 359.47,-150.34"/>
</g>
<!-- Teacher&#45;&gt;Templates -->
<g id="edge22" class="edge">
<title>Teacher&#45;&gt;Templates</title>
<path fill="none" stroke="black" d="M305.43,-204.08C320.54,-209.48 336.98,-215.35 352.12,-220.76"/>
<polygon fill="black" stroke="black" points="351.25,-224.16 361.85,-224.23 353.61,-217.57 351.25,-224.16"/>
</g>
<!-- Admin&#45;&gt;Models -->
<g id="edge12" class="edge">
<title>Admin&#45;&gt;Models</title>
<path fill="none" stroke="black" d="M303.71,-148.14C319.48,-153.98 336.85,-160.41 352.73,-166.28"/>
<polygon fill="black" stroke="black" points="351.8,-169.67 362.39,-169.86 354.23,-163.11 351.8,-169.67"/>
</g>
<!-- Admin&#45;&gt;Forms -->
<g id="edge17" class="edge">
<title>Admin&#45;&gt;Forms</title>
<path fill="none" stroke="black" d="M321.34,-129.45C333.57,-129.53 346.05,-129.61 357.55,-129.69"/>
<polygon fill="black" stroke="black" points="357.77,-133.19 367.79,-129.75 357.81,-126.19 357.77,-133.19"/>
</g>
<!-- Admin&#45;&gt;Templates -->
<g id="edge23" class="edge">
<title>Admin&#45;&gt;Templates</title>
<path fill="none" stroke="black" d="M312.77,-148.19C317.46,-150.79 321.94,-153.72 326,-157 349,-175.62 340.86,-192.3 362,-213 362.8,-213.78 363.63,-214.56 364.48,-215.31"/>
<polygon fill="black" stroke="black" points="362.6,-218.29 372.6,-221.78 366.95,-212.81 362.6,-218.29"/>
</g>
<!-- Database -->
<g id="node13" class="node">
<title>Database</title>
<path fill="none" stroke="black" d="M622,-200.73C622,-202.53 591.97,-204 555,-204 518.03,-204 488,-202.53 488,-200.73 488,-200.73 488,-171.27 488,-171.27 488,-169.47 518.03,-168 555,-168 591.97,-168 622,-169.47 622,-171.27 622,-171.27 622,-200.73 622,-200.73"/>
<path fill="none" stroke="black" d="M622,-200.73C622,-198.92 591.97,-197.45 555,-197.45 518.03,-197.45 488,-198.92 488,-200.73"/>
<text text-anchor="middle" x="555" y="-182.3" font-family="Helvetica,sans-Serif" font-size="14.00">MySQL Database</text>
</g>
<!-- Models&#45;&gt;Database -->
<g id="edge13" class="edge">
<title>Models&#45;&gt;Database</title>
<path fill="none" stroke="black" d="M451.8,-186C460.04,-186 468.88,-186 477.77,-186"/>
<polygon fill="black" stroke="black" points="477.82,-189.5 487.82,-186 477.82,-182.5 477.82,-189.5"/>
</g>
<!-- Static -->
<g id="node11" class="node">
<title>Static</title>
<polygon fill="none" stroke="black" points="584.5,-258 525.5,-258 525.5,-222 584.5,-222 584.5,-258"/>
<text text-anchor="middle" x="555" y="-236.3" font-family="Helvetica,sans-Serif" font-size="14.00">static/</text>
</g>
<!-- Templates&#45;&gt;Static -->
<g id="edge24" class="edge">
<title>Templates&#45;&gt;Static</title>
<path fill="none" stroke="black" d="M452.2,-240C472.26,-240 495.78,-240 515.16,-240"/>
<polygon fill="black" stroke="black" points="515.16,-243.5 525.16,-240 515.16,-236.5 515.16,-243.5"/>
</g>
</g>
</svg>
