<?xml version="1.0" encoding="UTF-8" standalone="no"?>
<!DOCTYPE svg PUBLIC "-//W3C//DTD SVG 1.1//EN"
 "http://www.w3.org/Graphics/SVG/1.1/DTD/svg11.dtd">
<!-- Generated by graphviz version 2.43.0 (0)
 -->
<!-- Title: DataModel Pages: 1 -->
<svg width="1498pt" height="353pt"
 viewBox="0.00 0.00 1498.00 353.00" xmlns="http://www.w3.org/2000/svg" xmlns:xlink="http://www.w3.org/1999/xlink">
<g id="graph0" class="graph" transform="scale(1 1) rotate(0) translate(4 349)">
<title>DataModel</title>
<polygon fill="white" stroke="transparent" points="-4,4 -4,-349 1494,-349 1494,4 -4,4"/>
<!-- Role -->
<g id="node1" class="node">
<title>Role</title>
<polygon fill="none" stroke="black" points="1305,-144.5 1305,-197.5 1490,-197.5 1490,-144.5 1305,-144.5"/>
<text text-anchor="middle" x="1328" y="-167.3" font-family="Helvetica,sans-Serif" font-size="14.00">Role</text>
<polyline fill="none" stroke="black" points="1351,-144.5 1351,-197.5 "/>
<text text-anchor="start" x="1359" y="-182.3" font-family="Helvetica,sans-Serif" font-size="14.00">id:int</text>
<text text-anchor="start" x="1359" y="-167.3" font-family="Helvetica,sans-Serif" font-size="14.00">name:string</text>
<text text-anchor="middle" x="1420.5" y="-152.3" font-family="Helvetica,sans-Serif" font-size="14.00">description:string</text>
</g>
<!-- User -->
<g id="node2" class="node">
<title>User</title>
<polygon fill="none" stroke="black" points="1024,-137 1024,-205 1241,-205 1241,-137 1024,-137"/>
<text text-anchor="middle" x="1048.5" y="-167.3" font-family="Helvetica,sans-Serif" font-size="14.00">User</text>
<polyline fill="none" stroke="black" points="1073,-137 1073,-205 "/>
<text text-anchor="start" x="1081" y="-189.8" font-family="Helvetica,sans-Serif" font-size="14.00">id:int</text>
<text text-anchor="start" x="1081" y="-174.8" font-family="Helvetica,sans-Serif" font-size="14.00">email:string</text>
<text text-anchor="start" x="1081" y="-159.8" font-family="Helvetica,sans-Serif" font-size="14.00">password_hash:string</text>
<text text-anchor="middle" x="1157" y="-144.8" font-family="Helvetica,sans-Serif" font-size="14.00">role_id:int</text>
</g>
<!-- User&#45;&gt;Role -->
<g id="edge1" class="edge">
<title>User&#45;&gt;Role</title>
<path fill="none" stroke="black" d="M1241.23,-171C1258.9,-171 1277.16,-171 1294.68,-171"/>
<polygon fill="black" stroke="black" points="1294.9,-174.5 1304.9,-171 1294.9,-167.5 1294.9,-174.5"/>
<text text-anchor="middle" x="1273" y="-174.8" font-family="Times,serif" font-size="14.00">role</text>
</g>
<!-- Student -->
<g id="node3" class="node">
<title>Student</title>
<polygon fill="none" stroke="black" points="682,-217 682,-285 929,-285 929,-217 682,-217"/>
<text text-anchor="middle" x="717.5" y="-247.3" font-family="Helvetica,sans-Serif" font-size="14.00">Student</text>
<polyline fill="none" stroke="black" points="753,-217 753,-285 "/>
<text text-anchor="start" x="761" y="-269.8" font-family="Helvetica,sans-Serif" font-size="14.00">id:int</text>
<text text-anchor="start" x="761" y="-254.8" font-family="Helvetica,sans-Serif" font-size="14.00">user_id:int</text>
<text text-anchor="start" x="761" y="-239.8" font-family="Helvetica,sans-Serif" font-size="14.00">student_number:string</text>
<text text-anchor="middle" x="841" y="-224.8" font-family="Helvetica,sans-Serif" font-size="14.00">class_name:string</text>
</g>
<!-- Student&#45;&gt;User -->
<g id="edge2" class="edge">
<title>Student&#45;&gt;User</title>
<path fill="none" stroke="black" d="M929.37,-220.76C957.06,-213.94 986.4,-206.72 1013.87,-199.95"/>
<polygon fill="black" stroke="black" points="1015.03,-203.27 1023.9,-197.49 1013.36,-196.48 1015.03,-203.27"/>
<text text-anchor="middle" x="990" y="-211.8" font-family="Times,serif" font-size="14.00">user</text>
</g>
<!-- Parent -->
<g id="node4" class="node">
<title>Parent</title>
<polygon fill="none" stroke="black" points="731,-304 731,-342 880,-342 880,-304 731,-304"/>
<text text-anchor="middle" x="761" y="-319.3" font-family="Helvetica,sans-Serif" font-size="14.00">Parent</text>
<polyline fill="none" stroke="black" points="791,-304 791,-342 "/>
<text text-anchor="start" x="799" y="-326.8" font-family="Helvetica,sans-Serif" font-size="14.00">id:int</text>
<text text-anchor="middle" x="835.5" y="-311.8" font-family="Helvetica,sans-Serif" font-size="14.00">user_id:int</text>
</g>
<!-- Parent&#45;&gt;User -->
<g id="edge3" class="edge">
<title>Parent&#45;&gt;User</title>
<path fill="none" stroke="black" d="M880.19,-315.62C904.95,-311.48 932.29,-305.03 956,-295 1004.19,-274.62 1052.26,-239.35 1085.87,-211.62"/>
<polygon fill="black" stroke="black" points="1088.23,-214.21 1093.67,-205.11 1083.75,-208.83 1088.23,-214.21"/>
<text text-anchor="middle" x="990" y="-288.8" font-family="Times,serif" font-size="14.00">user</text>
</g>
<!-- ParentStudent -->
<g id="node5" class="node">
<title>ParentStudent</title>
<polygon fill="none" stroke="black" points="269,-291.5 269,-344.5 564,-344.5 564,-291.5 269,-291.5"/>
<text text-anchor="middle" x="326.5" y="-314.3" font-family="Helvetica,sans-Serif" font-size="14.00">ParentStudent</text>
<polyline fill="none" stroke="black" points="384,-291.5 384,-344.5 "/>
<text text-anchor="start" x="392" y="-329.3" font-family="Helvetica,sans-Serif" font-size="14.00">parent_id:int</text>
<text text-anchor="start" x="392" y="-314.3" font-family="Helvetica,sans-Serif" font-size="14.00">student_id:int</text>
<text text-anchor="middle" x="474" y="-299.3" font-family="Helvetica,sans-Serif" font-size="14.00">relationship_type:string</text>
</g>
<!-- ParentStudent&#45;&gt;Student -->
<g id="edge5" class="edge">
<title>ParentStudent&#45;&gt;Student</title>
<path fill="none" stroke="black" d="M564.08,-292.62C599.42,-286.5 636.99,-280 671.66,-274"/>
<polygon fill="black" stroke="black" points="672.58,-277.39 681.84,-272.24 671.39,-270.49 672.58,-277.39"/>
<text text-anchor="middle" x="609.5" y="-291.8" font-family="Times,serif" font-size="14.00">student</text>
</g>
<!-- ParentStudent&#45;&gt;Parent -->
<g id="edge4" class="edge">
<title>ParentStudent&#45;&gt;Parent</title>
<path fill="none" stroke="black" d="M564.08,-319.89C616.99,-320.58 674.88,-321.33 720.59,-321.92"/>
<polygon fill="black" stroke="black" points="720.7,-325.42 730.74,-322.05 720.79,-318.42 720.7,-325.42"/>
<text text-anchor="middle" x="609.5" y="-323.8" font-family="Times,serif" font-size="14.00">parent</text>
</g>
<!-- Teacher -->
<g id="node6" class="node">
<title>Teacher</title>
<polygon fill="none" stroke="black" points="675.5,-144.5 675.5,-197.5 935.5,-197.5 935.5,-144.5 675.5,-144.5"/>
<text text-anchor="middle" x="710.5" y="-167.3" font-family="Helvetica,sans-Serif" font-size="14.00">Teacher</text>
<polyline fill="none" stroke="black" points="745.5,-144.5 745.5,-197.5 "/>
<text text-anchor="start" x="753.5" y="-182.3" font-family="Helvetica,sans-Serif" font-size="14.00">id:int</text>
<text text-anchor="start" x="753.5" y="-167.3" font-family="Helvetica,sans-Serif" font-size="14.00">user_id:int</text>
<text text-anchor="middle" x="840.5" y="-152.3" font-family="Helvetica,sans-Serif" font-size="14.00">employee_number:string</text>
</g>
<!-- Teacher&#45;&gt;User -->
<g id="edge6" class="edge">
<title>Teacher&#45;&gt;User</title>
<path fill="none" stroke="black" d="M935.88,-171C961.67,-171 988.61,-171 1013.97,-171"/>
<polygon fill="black" stroke="black" points="1013.98,-174.5 1023.98,-171 1013.98,-167.5 1013.98,-174.5"/>
<text text-anchor="middle" x="990" y="-174.8" font-family="Times,serif" font-size="14.00">user</text>
</g>
<!-- Administrator -->
<g id="node7" class="node">
<title>Administrator</title>
<polygon fill="none" stroke="black" points="655,-72.5 655,-125.5 956,-125.5 956,-72.5 655,-72.5"/>
<text text-anchor="middle" x="710.5" y="-95.3" font-family="Helvetica,sans-Serif" font-size="14.00">Administrator</text>
<polyline fill="none" stroke="black" points="766,-72.5 766,-125.5 "/>
<text text-anchor="start" x="774" y="-110.3" font-family="Helvetica,sans-Serif" font-size="14.00">id:int</text>
<text text-anchor="start" x="774" y="-95.3" font-family="Helvetica,sans-Serif" font-size="14.00">user_id:int</text>
<text text-anchor="middle" x="861" y="-80.3" font-family="Helvetica,sans-Serif" font-size="14.00">employee_number:string</text>
</g>
<!-- Administrator&#45;&gt;User -->
<g id="edge7" class="edge">
<title>Administrator&#45;&gt;User</title>
<path fill="none" stroke="black" d="M926.13,-125.5C954.79,-131.85 985.36,-138.62 1013.93,-144.95"/>
<polygon fill="black" stroke="black" points="1013.42,-148.43 1023.94,-147.17 1014.93,-141.59 1013.42,-148.43"/>
<text text-anchor="middle" x="990" y="-144.8" font-family="Times,serif" font-size="14.00">user</text>
</g>
<!-- Course -->
<g id="node8" class="node">
<title>Course</title>
<polygon fill="none" stroke="black" points="328.5,-75 328.5,-143 504.5,-143 504.5,-75 328.5,-75"/>
<text text-anchor="middle" x="361" y="-105.3" font-family="Helvetica,sans-Serif" font-size="14.00">Course</text>
<polyline fill="none" stroke="black" points="393.5,-75 393.5,-143 "/>
<text text-anchor="start" x="401.5" y="-127.8" font-family="Helvetica,sans-Serif" font-size="14.00">id:int</text>
<text text-anchor="start" x="401.5" y="-112.8" font-family="Helvetica,sans-Serif" font-size="14.00">name:string</text>
<text text-anchor="start" x="401.5" y="-97.8" font-family="Helvetica,sans-Serif" font-size="14.00">code:string</text>
<text text-anchor="middle" x="449" y="-82.8" font-family="Helvetica,sans-Serif" font-size="14.00">teacher_id:int</text>
</g>
<!-- Course&#45;&gt;Teacher -->
<g id="edge8" class="edge">
<title>Course&#45;&gt;Teacher</title>
<path fill="none" stroke="black" d="M504.83,-122.99C552.16,-130.57 611.76,-140.12 665.31,-148.7"/>
<polygon fill="black" stroke="black" points="664.81,-152.17 675.24,-150.29 665.92,-145.25 664.81,-152.17"/>
<text text-anchor="middle" x="609.5" y="-146.8" font-family="Times,serif" font-size="14.00">teacher</text>
</g>
<!-- Grade -->
<g id="node9" class="node">
<title>Grade</title>
<polygon fill="none" stroke="black" points="7,-130 7,-198 178,-198 178,-130 7,-130"/>
<text text-anchor="middle" x="36.5" y="-160.3" font-family="Helvetica,sans-Serif" font-size="14.00">Grade</text>
<polyline fill="none" stroke="black" points="66,-130 66,-198 "/>
<text text-anchor="start" x="74" y="-182.8" font-family="Helvetica,sans-Serif" font-size="14.00">id:int</text>
<text text-anchor="start" x="74" y="-167.8" font-family="Helvetica,sans-Serif" font-size="14.00">student_id:int</text>
<text text-anchor="start" x="74" y="-152.8" font-family="Helvetica,sans-Serif" font-size="14.00">course_id:int</text>
<text text-anchor="middle" x="122" y="-137.8" font-family="Helvetica,sans-Serif" font-size="14.00">teacher_id:int</text>
</g>
<!-- Grade&#45;&gt;Student -->
<g id="edge9" class="edge">
<title>Grade&#45;&gt;Student</title>
<path fill="none" stroke="black" d="M176.07,-198.15C204.97,-208.63 237.97,-218.98 269,-225 404.46,-251.27 562.61,-255.83 671.75,-255.02"/>
<polygon fill="black" stroke="black" points="671.85,-258.52 681.82,-254.93 671.79,-251.52 671.85,-258.52"/>
<text text-anchor="middle" x="416.5" y="-256.8" font-family="Times,serif" font-size="14.00">student</text>
</g>
<!-- Grade&#45;&gt;Teacher -->
<g id="edge11" class="edge">
<title>Grade&#45;&gt;Teacher</title>
<path fill="none" stroke="black" d="M173.6,-129.83C177.6,-127.07 181.44,-124.12 185,-121 196.13,-111.25 192.51,-103.44 203,-93 227.64,-68.47 235.62,-60.72 269,-51 394.88,-14.34 441.89,-3.26 564,-51 615.26,-71.04 606.46,-109.05 655,-135 658.54,-136.89 662.18,-138.69 665.9,-140.39"/>
<polygon fill="black" stroke="black" points="664.71,-143.69 675.28,-144.43 667.48,-137.26 664.71,-143.69"/>
<text text-anchor="middle" x="416.5" y="-54.8" font-family="Times,serif" font-size="14.00">teacher</text>
</g>
<!-- Grade&#45;&gt;Course -->
<g id="edge10" class="edge">
<title>Grade&#45;&gt;Course</title>
<path fill="none" stroke="black" d="M178.1,-149.55C221.15,-142.2 273.68,-133.22 318.38,-125.59"/>
<polygon fill="black" stroke="black" points="319.11,-129.01 328.38,-123.88 317.93,-122.11 319.11,-129.01"/>
<text text-anchor="middle" x="227" y="-147.8" font-family="Times,serif" font-size="14.00">course</text>
</g>
<!-- Absence -->
<g id="node10" class="node">
<title>Absence</title>
<polygon fill="none" stroke="black" points="322.5,-162.5 322.5,-215.5 510.5,-215.5 510.5,-162.5 322.5,-162.5"/>
<text text-anchor="middle" x="360.5" y="-185.3" font-family="Helvetica,sans-Serif" font-size="14.00">Absence</text>
<polyline fill="none" stroke="black" points="398.5,-162.5 398.5,-215.5 "/>
<text text-anchor="start" x="406.5" y="-200.3" font-family="Helvetica,sans-Serif" font-size="14.00">id:int</text>
<text text-anchor="start" x="406.5" y="-185.3" font-family="Helvetica,sans-Serif" font-size="14.00">student_id:int</text>
<text text-anchor="middle" x="454.5" y="-170.3" font-family="Helvetica,sans-Serif" font-size="14.00">teacher_id:int</text>
</g>
<!-- Absence&#45;&gt;Student -->
<g id="edge12" class="edge">
<title>Absence&#45;&gt;Student</title>
<path fill="none" stroke="black" d="M510.73,-203.19C549.76,-209.19 595.6,-216.33 637,-223 648.37,-224.83 660.17,-226.76 672.01,-228.7"/>
<polygon fill="black" stroke="black" points="671.51,-232.17 681.95,-230.34 672.65,-225.26 671.51,-232.17"/>
<text text-anchor="middle" x="609.5" y="-226.8" font-family="Times,serif" font-size="14.00">student</text>
</g>
<!-- Absence&#45;&gt;Teacher -->
<g id="edge13" class="edge">
<title>Absence&#45;&gt;Teacher</title>
<path fill="none" stroke="black" d="M510.58,-184.41C533.9,-183.28 558.87,-182.08 582,-181 608.92,-179.74 637.67,-178.43 665.26,-177.18"/>
<polygon fill="black" stroke="black" points="665.54,-180.67 675.37,-176.72 665.22,-173.68 665.54,-180.67"/>
<text text-anchor="middle" x="609.5" y="-184.8" font-family="Times,serif" font-size="14.00">teacher</text>
</g>
<!-- Schedule -->
<g id="node11" class="node">
<title>Schedule</title>
<polygon fill="none" stroke="black" points="0,-73 0,-111 185,-111 185,-73 0,-73"/>
<text text-anchor="middle" x="40" y="-88.3" font-family="Helvetica,sans-Serif" font-size="14.00">Schedule</text>
<polyline fill="none" stroke="black" points="80,-73 80,-111 "/>
<text text-anchor="start" x="88" y="-95.8" font-family="Helvetica,sans-Serif" font-size="14.00">id:int</text>
<text text-anchor="middle" x="132.5" y="-80.8" font-family="Helvetica,sans-Serif" font-size="14.00">course_id:int</text>
</g>
<!-- Schedule&#45;&gt;Course -->
<g id="edge14" class="edge">
<title>Schedule&#45;&gt;Course</title>
<path fill="none" stroke="black" d="M185.34,-96.85C226.9,-99.04 276.05,-101.64 318.24,-103.87"/>
<polygon fill="black" stroke="black" points="318.07,-107.36 328.24,-104.39 318.44,-100.37 318.07,-107.36"/>
<text text-anchor="middle" x="227" y="-102.8" font-family="Times,serif" font-size="14.00">course</text>
</g>
<!-- AuthLog -->
<g id="node12" class="node">
<title>AuthLog</title>
<polygon fill="none" stroke="black" points="719,-0.5 719,-53.5 892,-53.5 892,-0.5 719,-0.5"/>
<text text-anchor="middle" x="756" y="-23.3" font-family="Helvetica,sans-Serif" font-size="14.00">AuthLog</text>
<polyline fill="none" stroke="black" points="793,-0.5 793,-53.5 "/>
<text text-anchor="start" x="801" y="-38.3" font-family="Helvetica,sans-Serif" font-size="14.00">id:int</text>
<text text-anchor="start" x="801" y="-23.3" font-family="Helvetica,sans-Serif" font-size="14.00">user_id:int</text>
<text text-anchor="middle" x="842.5" y="-8.3" font-family="Helvetica,sans-Serif" font-size="14.00">email:string</text>
</g>
<!-- AuthLog&#45;&gt;User -->
<g id="edge15" class="edge">
<title>AuthLog&#45;&gt;User</title>
<path fill="none" stroke="black" d="M892.19,-42.74C913.46,-47.97 935.91,-54.65 956,-63 998.94,-80.85 1043.52,-108.42 1077,-131.23"/>
<polygon fill="black" stroke="black" points="1075.05,-134.13 1085.27,-136.92 1079.02,-128.37 1075.05,-134.13"/>
<text text-anchor="middle" x="990" y="-88.8" font-family="Times,serif" font-size="14.00">user</text>
</g>
</g>
</svg>
